# Blender v2.79 (sub 0) OBJ File: 'dungeon.blend'
# www.blender.org
o Cylinder
v 0.000000 0.012084 0.109216
v 0.000000 0.387916 0.109216
v -0.041795 0.012084 0.100903
v -0.041795 0.387916 0.100903
v -0.077228 0.012084 0.077228
v -0.077228 0.387916 0.077228
v -0.100903 0.012084 0.041795
v -0.100903 0.387916 0.041795
v -0.109216 0.012084 -0.000000
v -0.109216 0.387916 -0.000000
v -0.100903 0.012084 -0.041795
v -0.100903 0.387916 -0.041795
v -0.077228 0.012084 -0.077228
v -0.077228 0.387916 -0.077228
v -0.041795 0.012084 -0.100903
v -0.041795 0.387916 -0.100903
v -0.000000 0.012084 -0.109216
v -0.000000 0.387916 -0.109216
v 0.041795 0.012084 -0.100903
v 0.041795 0.387916 -0.100903
v 0.077228 0.012084 -0.077228
v 0.077228 0.387916 -0.077228
v 0.100903 0.012084 -0.041795
v 0.100903 0.387916 -0.041795
v 0.109216 0.012084 -0.000000
v 0.109216 0.387916 -0.000000
v 0.100903 0.012084 0.041795
v 0.100903 0.387916 0.041795
v 0.077228 0.012084 0.077228
v 0.077228 0.387916 0.077228
v 0.041795 0.012084 0.100903
v 0.041795 0.387916 0.100903
v -0.000000 0.082667 0.165000
v -0.000000 0.317333 0.165000
v -0.063143 0.317333 0.152440
v -0.063143 0.082667 0.152440
v -0.116673 0.317333 0.116673
v -0.116673 0.082667 0.116673
v -0.152440 0.317333 0.063143
v -0.152440 0.082667 0.063143
v -0.165000 0.317333 -0.000000
v -0.165000 0.082667 -0.000000
v -0.152440 0.317333 -0.063143
v -0.152440 0.082667 -0.063143
v -0.116673 0.317333 -0.116673
v -0.116673 0.082667 -0.116673
v -0.063143 0.317333 -0.152440
v -0.063143 0.082667 -0.152440
v -0.000000 0.317333 -0.165000
v -0.000000 0.082667 -0.165000
v 0.063143 0.317333 -0.152440
v 0.063143 0.082667 -0.152440
v 0.116673 0.317333 -0.116673
v 0.116673 0.082667 -0.116673
v 0.152440 0.317333 -0.063143
v 0.152440 0.082667 -0.063143
v 0.165000 0.317333 0.000000
v 0.165000 0.082667 0.000000
v 0.152440 0.317333 0.063143
v 0.152440 0.082667 0.063143
v 0.116673 0.317333 0.116673
v 0.116673 0.082667 0.116673
v 0.063143 0.317333 0.152440
v 0.063143 0.082667 0.152440
v -0.000000 0.200000 0.171621
v -0.065676 0.200000 0.158557
v -0.121354 0.200000 0.121354
v -0.158557 0.200000 0.065676
v -0.171621 0.200000 -0.000000
v -0.158557 0.200000 -0.065676
v -0.121354 0.200000 -0.121354
v -0.065676 0.200000 -0.158557
v -0.000000 0.200000 -0.171621
v 0.065676 0.200000 -0.158557
v 0.121354 0.200000 -0.121354
v 0.158557 0.200000 -0.065676
v 0.171621 0.200000 0.000000
v 0.158557 0.200000 0.065676
v 0.121354 0.200000 0.121354
v 0.065676 0.200000 0.158557
v -0.057403 0.400000 0.138582
v -0.000000 0.400000 0.150000
v -0.106066 0.400000 0.106066
v -0.138582 0.400000 0.057403
v -0.150000 0.400000 -0.000000
v -0.138582 0.400000 -0.057403
v -0.106066 0.400000 -0.106066
v -0.057403 0.400000 -0.138582
v -0.000000 0.400000 -0.150000
v 0.057402 0.400000 -0.138582
v 0.106066 0.400000 -0.106066
v 0.138582 0.400000 -0.057403
v 0.150000 0.400000 0.000000
v 0.138582 0.400000 0.057403
v 0.106066 0.400000 0.106066
v 0.057402 0.400000 0.138582
v -0.000000 0.000000 0.150000
v -0.057403 0.000000 0.138582
v -0.106066 0.000000 0.106066
v -0.138582 0.000000 0.057403
v -0.150000 0.000000 -0.000000
v -0.138582 0.000000 -0.057403
v -0.106066 0.000000 -0.106066
v -0.057403 0.000000 -0.138582
v -0.000000 0.000000 -0.150000
v 0.057402 0.000000 -0.138582
v 0.106066 0.000000 -0.106066
v 0.138582 0.000000 -0.057403
v 0.150000 0.000000 0.000000
v 0.138582 0.000000 0.057403
v 0.106066 0.000000 0.106066
v 0.057402 0.000000 0.138582
vt 0.460938 0.906250
vt 0.406250 0.835938
vt 0.476562 0.781250
vt 0.523438 0.828125
vt 0.445312 0.789062
vt 0.406250 0.867188
vt 0.531250 0.851562
vt 0.515625 0.875000
vt 0.507812 0.890625
vt 0.484375 0.898438
vt 0.437500 0.898438
vt 0.421875 0.882812
vt 0.406250 0.867188
vt 0.414062 0.812500
vt 0.429688 0.796875
vt 0.445312 0.789062
vt 0.500000 0.789062
vt 0.515625 0.804688
vt 0.523438 0.828125
vt 0.484375 0.898438
vt 0.507812 0.890625
vt 0.515625 0.875000
vt 0.531250 0.851562
vt 0.515625 0.804688
vt 0.500000 0.789062
vt 0.476562 0.781250
vt 0.429688 0.796875
vt 0.414062 0.812500
vt 0.406250 0.835938
vt 0.421875 0.882812
vt 0.437500 0.898438
vt 0.460938 0.906250
vt 0.546875 1.000000
vt 0.507812 0.929688
vt 0.546875 0.929688
vt 0.507812 1.000000
vt 0.468750 0.929688
vt 0.468750 1.000000
vt 0.429688 0.929688
vt 0.429688 1.000000
vt 0.390625 0.929688
vt 0.546875 1.000000
vt 0.507812 0.929688
vt 0.546875 0.929688
vt 0.468750 1.000000
vt 0.468750 0.929688
vt 0.429688 1.000000
vt 0.429688 0.929688
vt 0.390625 1.000000
vt 0.390625 0.929688
vt 0.546875 1.000000
vt 0.507812 0.929688
vt 0.546875 0.929688
vt 0.507812 1.000000
vt 0.468750 0.929688
vt 0.468750 1.000000
vt 0.429688 0.929688
vt 0.429688 1.000000
vt 0.390625 0.929688
vt 0.546875 1.000000
vt 0.507812 0.929688
vt 0.546875 0.929688
vt 0.507812 1.000000
vt 0.468750 0.929688
vt 0.468750 1.000000
vt 0.429688 0.929688
vt 0.429688 1.000000
vt 0.390625 0.929688
vt 0.429688 0.757812
vt 0.390625 0.687500
vt 0.429688 0.687500
vt 0.390625 0.843750
vt 0.429688 0.843750
vt 0.468750 0.757812
vt 0.468750 0.687500
vt 0.468750 0.843750
vt 0.507812 0.687500
vt 0.507812 0.843750
vt 0.546875 0.757812
vt 0.546875 0.687500
vt 0.546875 0.843750
vt 0.429688 0.757812
vt 0.390625 0.687500
vt 0.429688 0.687500
vt 0.390625 0.843750
vt 0.429688 0.843750
vt 0.468750 0.757812
vt 0.468750 0.687500
vt 0.468750 0.843750
vt 0.507812 0.687500
vt 0.507812 0.843750
vt 0.546875 0.757812
vt 0.546875 0.687500
vt 0.546875 0.843750
vt 0.429688 0.757812
vt 0.390625 0.687500
vt 0.429688 0.687500
vt 0.390625 0.843750
vt 0.429688 0.843750
vt 0.468750 0.757812
vt 0.468750 0.687500
vt 0.468750 0.843750
vt 0.507812 0.757812
vt 0.507812 0.687500
vt 0.507812 0.843750
vt 0.546875 0.757812
vt 0.546875 0.687500
vt 0.546875 0.843750
vt 0.429688 0.757812
vt 0.390625 0.687500
vt 0.429688 0.687500
vt 0.390625 0.843750
vt 0.429688 0.843750
vt 0.468750 0.687500
vt 0.468750 0.843750
vt 0.507812 0.757812
vt 0.507812 0.687500
vt 0.507812 0.843750
vt 0.546875 0.757812
vt 0.546875 0.687500
vt 0.546875 0.843750
vt 0.468750 0.757812
vt 0.390625 0.757812
vt 0.390625 0.757812
vt 0.507812 0.757812
vt 0.390625 0.757812
vt 0.507812 0.757812
vt 0.390625 0.757812
vt 0.554688 0.757812
vt 0.507812 0.789062
vt 0.507812 0.757812
vt 0.507812 0.757812
vt 0.554688 0.789062
vt 0.507812 0.789062
vt 0.593750 0.757812
vt 0.554688 0.757812
vt 0.554688 0.757812
vt 0.507812 0.789062
vt 0.507812 0.757812
vt 0.593750 0.789062
vt 0.554688 0.789062
vt 0.554688 0.757812
vt 0.507812 0.789062
vt 0.507812 0.757812
vt 0.593750 0.757812
vt 0.554688 0.789062
vt 0.554688 0.757812
vt 0.507812 0.789062
vt 0.507812 0.757812
vt 0.593750 0.757812
vt 0.554688 0.789062
vt 0.554688 0.757812
vt 0.507812 0.789062
vt 0.507812 0.757812
vt 0.593750 0.789062
vt 0.554688 0.789062
vt 0.554688 0.757812
vt 0.507812 0.789062
vt 0.507812 0.757812
vt 0.593750 0.789062
vt 0.554688 0.789062
vt 0.554688 0.757812
vt 0.507812 0.789062
vt 0.507812 0.757812
vt 0.593750 0.757812
vt 0.554688 0.789062
vt 0.593750 0.757812
vt 0.554688 0.789062
vt 0.554688 0.757812
vt 0.554688 0.757812
vt 0.507812 0.789062
vt 0.507812 0.757812
vt 0.554688 0.757812
vt 0.507812 0.789062
vt 0.507812 0.757812
vt 0.593750 0.757812
vt 0.554688 0.789062
vt 0.554688 0.757812
vt 0.507812 0.789062
vt 0.507812 0.757812
vt 0.593750 0.757812
vt 0.554688 0.789062
vt 0.554688 0.757812
vt 0.507812 0.789062
vt 0.507812 0.757812
vt 0.593750 0.757812
vt 0.554688 0.789062
vt 0.554688 0.757812
vt 0.507812 0.789062
vt 0.507812 0.757812
vt 0.593750 0.757812
vt 0.554688 0.789062
vt 0.554688 0.757812
vt 0.507812 0.757812
vt 0.507812 0.789062
vt 0.593750 0.757812
vt 0.554688 0.789062
vt 0.554688 0.757812
vt 0.507812 0.789062
vt 0.507812 0.757812
vt 0.593750 0.757812
vt 0.554688 0.789062
vt 0.554688 0.757812
vt 0.507812 0.757812
vt 0.507812 0.789062
vt 0.554688 0.757812
vt 0.593750 0.789062
vt 0.554688 0.789062
vt 0.593750 0.757812
vt 0.554688 0.789062
vt 0.390625 1.000000
vt 0.507812 1.000000
vt 0.390625 1.000000
vt 0.390625 1.000000
vt 0.554688 0.789062
vt 0.593750 0.789062
vt 0.593750 0.757812
vt 0.593750 0.789062
vt 0.593750 0.789062
vt 0.593750 0.757812
vt 0.593750 0.757812
vt 0.593750 0.789062
vt 0.593750 0.789062
vt 0.554688 0.789062
vt 0.593750 0.789062
vt 0.593750 0.789062
vt 0.593750 0.789062
vt 0.593750 0.789062
vt 0.593750 0.789062
vt 0.593750 0.789062
vt 0.593750 0.757812
vt 0.593750 0.789062
vn 0.0000 1.0000 -0.0000
vn 0.0000 -1.0000 0.0000
vn 0.0000 0.8108 0.5852
vn -0.3800 0.1168 0.9175
vn 0.0000 0.1168 0.9931
vn -0.2239 0.8108 0.5407
vn -0.7023 0.1168 0.7023
vn -0.4138 0.8108 0.4138
vn -0.9175 0.1168 0.3800
vn -0.5407 0.8108 0.2239
vn -0.9931 0.1168 0.0000
vn -0.5852 0.8108 0.0000
vn -0.9175 0.1168 -0.3800
vn -0.4138 0.8108 -0.4138
vn -0.7023 0.1168 -0.7023
vn -0.2239 0.8108 -0.5407
vn -0.3800 0.1168 -0.9175
vn 0.0000 0.8108 -0.5852
vn 0.0000 0.1168 -0.9931
vn 0.3800 0.1168 -0.9175
vn 0.2239 0.8108 -0.5407
vn 0.7023 0.1168 -0.7023
vn 0.4138 0.8108 -0.4138
vn 0.9175 0.1168 -0.3800
vn 0.5407 0.8108 -0.2239
vn 0.9931 0.1168 0.0000
vn 0.5852 0.8108 0.0000
vn 0.9175 0.1168 0.3800
vn 0.5407 0.8108 0.2239
vn 0.7023 0.1168 0.7023
vn 0.4138 0.8108 0.4138
vn 0.3800 0.1168 0.9175
vn 0.2239 0.8108 0.5407
vn 0.3800 -0.1168 0.9175
vn 0.0000 -0.8108 0.5852
vn 0.2239 -0.8108 0.5407
vn 0.0000 0.0000 1.0000
vn 0.3827 0.0000 0.9239
vn 0.7023 -0.1168 0.7023
vn 0.4138 -0.8108 0.4138
vn 0.7071 0.0000 0.7071
vn 0.5407 -0.8108 0.2239
vn 0.9239 0.0000 0.3827
vn 0.9931 -0.1168 0.0000
vn 0.5852 -0.8108 0.0000
vn 1.0000 0.0000 0.0000
vn 0.9175 -0.1168 -0.3800
vn 0.5407 -0.8108 -0.2239
vn 0.9239 0.0000 -0.3827
vn 0.7023 -0.1168 -0.7023
vn 0.4138 -0.8108 -0.4138
vn 0.7071 0.0000 -0.7071
vn 0.2239 -0.8108 -0.5407
vn 0.3827 0.0000 -0.9239
vn 0.0000 -0.1168 -0.9931
vn 0.0000 -0.8108 -0.5852
vn 0.0000 0.0000 -1.0000
vn -0.3800 -0.1168 -0.9175
vn -0.2239 -0.8108 -0.5407
vn -0.3827 0.0000 -0.9239
vn -0.7023 -0.1168 -0.7023
vn -0.4138 -0.8108 -0.4138
vn -0.7071 0.0000 -0.7071
vn -0.9175 -0.1168 -0.3800
vn -0.5407 -0.8108 -0.2239
vn -0.9239 0.0000 -0.3827
vn -0.9931 -0.1168 0.0000
vn -0.5852 -0.8108 0.0000
vn -1.0000 0.0000 0.0000
vn -0.9175 -0.1168 0.3800
vn -0.5407 -0.8108 0.2239
vn -0.9239 0.0000 0.3827
vn -0.4138 -0.8108 0.4138
vn -0.7071 0.0000 0.7071
vn -0.3800 -0.1168 0.9175
vn -0.2239 -0.8108 0.5407
vn -0.3827 0.0000 0.9239
vn 0.0000 -0.1168 0.9931
vn -0.7023 -0.1168 0.7023
vn 0.3800 -0.1168 -0.9175
vn 0.9175 -0.1168 0.3800
vn 0.0616 0.9869 -0.1487
vn 0.0000 0.9869 -0.1610
vn 0.1487 0.9869 -0.0616
vn 0.1138 0.9869 -0.1138
vn 0.1610 0.9869 0.0000
vn -0.5407 0.8108 -0.2239
vn 0.1138 0.9869 0.1138
vn 0.1487 0.9869 0.0616
vn 0.0616 0.9869 0.1487
vn 0.0000 0.9869 0.1610
vn -0.0616 0.9869 0.1487
vn -0.1138 0.9869 0.1138
vn -0.1610 0.9869 0.0000
vn -0.1487 0.9869 0.0616
vn -0.1138 0.9869 -0.1138
vn -0.1487 0.9869 -0.0616
vn -0.0616 0.9869 -0.1487
vn 0.0000 -0.9869 -0.1610
vn 0.0616 -0.9869 -0.1487
vn 0.1138 -0.9869 -0.1138
vn 0.1487 -0.9869 -0.0616
vn 0.1610 -0.9869 0.0000
vn 0.1487 -0.9869 0.0616
vn 0.1138 -0.9869 0.1138
vn 0.0616 -0.9869 0.1487
vn 0.0000 -0.9869 0.1610
vn -0.0616 -0.9869 0.1487
vn -0.1138 -0.9869 0.1138
vn -0.1487 -0.9869 0.0616
vn -0.1610 -0.9869 0.0000
vn -0.1487 -0.9869 -0.0616
vn -0.1138 -0.9869 -0.1138
vn -0.0616 -0.9869 -0.1487
s off
f 30/1/1 22/2/1 14/3/1
f 7/4/2 15/5/2 23/6/2
f 6/7/1 4/8/1 2/9/1
f 2/9/1 32/10/1 30/1/1
f 30/1/1 28/11/1 22/2/1
f 28/11/1 26/12/1 22/2/1
f 26/12/1 24/13/1 22/2/1
f 22/2/1 20/14/1 18/15/1
f 18/15/1 16/16/1 22/2/1
f 16/16/1 14/3/1 22/2/1
f 14/3/1 12/17/1 6/7/1
f 12/17/1 10/18/1 6/7/1
f 10/18/1 8/19/1 6/7/1
f 6/7/1 2/9/1 30/1/1
f 6/7/1 30/1/1 14/3/1
f 31/20/2 1/21/2 3/22/2
f 3/22/2 5/23/2 7/4/2
f 7/4/2 9/24/2 11/25/2
f 11/25/2 13/26/2 7/4/2
f 13/26/2 15/5/2 7/4/2
f 15/5/2 17/27/2 19/28/2
f 19/28/2 21/29/2 23/6/2
f 23/6/2 25/30/2 27/31/2
f 27/31/2 29/32/2 23/6/2
f 29/32/2 31/20/2 23/6/2
f 31/20/2 3/22/2 7/4/2
f 15/5/2 19/28/2 23/6/2
f 31/20/2 7/4/2 23/6/2
s 1
f 82/33/3 35/34/4 34/35/5
f 81/36/6 37/37/7 35/34/4
f 83/38/8 39/39/9 37/37/7
f 84/40/10 41/41/11 39/39/9
f 85/42/12 43/43/13 41/44/11
f 43/43/13 87/45/14 45/46/15
f 45/46/15 88/47/16 47/48/17
f 47/48/17 89/49/18 49/50/19
f 89/51/18 51/52/20 49/53/19
f 90/54/21 53/55/22 51/52/20
f 91/56/23 55/57/24 53/55/22
f 92/58/25 57/59/26 55/57/24
f 93/60/27 59/61/28 57/62/26
f 94/63/29 61/64/30 59/61/28
f 95/65/31 63/66/32 61/64/30
f 96/67/33 34/68/5 63/66/32
f 64/69/34 97/70/35 112/71/36
f 63/66/32 65/72/37 80/73/38
f 62/74/39 112/71/36 111/75/40
f 61/64/30 80/73/38 79/76/41
f 110/77/42 62/74/39 111/75/40
f 59/61/28 79/76/41 78/78/43
f 58/79/44 110/77/42 109/80/45
f 57/62/26 78/78/43 77/81/46
f 56/82/47 109/83/45 108/84/48
f 55/57/24 77/85/46 76/86/49
f 54/87/50 108/84/48 107/88/51
f 75/89/52 55/57/24 76/86/49
f 106/90/53 54/87/50 107/88/51
f 51/52/20 75/89/52 74/91/54
f 50/92/55 106/90/53 105/93/56
f 49/53/19 74/91/54 73/94/57
f 48/95/58 105/96/56 104/97/59
f 47/48/17 73/98/57 72/99/60
f 46/100/61 104/97/59 103/101/62
f 45/46/15 72/99/60 71/102/63
f 44/103/64 103/101/62 102/104/65
f 43/43/13 71/102/63 70/105/66
f 42/106/67 102/104/65 101/107/68
f 41/44/11 70/105/66 69/108/69
f 40/109/70 101/110/68 100/111/71
f 39/39/9 69/112/69 68/113/72
f 99/114/73 40/109/70 100/111/71
f 37/37/7 68/113/72 67/115/74
f 36/116/75 99/114/73 98/117/76
f 35/34/4 67/115/74 66/118/77
f 33/119/78 98/117/76 97/120/35
f 34/35/5 66/118/77 65/121/37
f 33/119/78 66/118/77 36/116/75
f 36/116/75 67/115/74 38/122/79
f 67/115/74 40/109/70 38/122/79
f 68/113/72 42/123/67 40/109/70
f 69/108/69 44/103/64 42/106/67
f 44/103/64 71/102/63 46/100/61
f 46/100/61 72/99/60 48/95/58
f 48/95/58 73/98/57 50/124/55
f 73/94/57 52/125/80 50/92/55
f 74/91/54 54/87/50 52/125/80
f 75/89/52 56/82/47 54/87/50
f 56/82/47 77/85/46 58/126/44
f 58/79/44 78/78/43 60/127/81
f 78/78/43 62/74/39 60/127/81
f 62/74/39 80/73/38 64/69/34
f 64/69/34 65/72/37 33/128/78
f 4/129/82 82/130/3 2/131/83
f 4/132/82 83/133/8 81/134/6
f 8/135/84 83/133/8 6/136/85
f 10/137/86 84/138/10 8/139/84
f 10/137/86 86/140/87 85/141/12
f 14/142/88 86/143/87 12/144/89
f 16/145/90 87/146/14 14/142/88
f 18/147/91 88/148/16 16/149/90
f 20/150/92 89/151/18 18/147/91
f 22/152/93 90/153/21 20/154/92
f 22/152/93 92/155/25 91/156/23
f 26/157/94 92/158/25 24/159/95
f 26/157/94 94/160/29 93/161/27
f 30/162/96 94/163/29 28/164/97
f 32/165/98 95/166/31 30/162/96
f 2/167/83 96/168/33 32/169/98
f 1/170/99 98/171/76 3/172/100
f 3/173/100 99/174/73 5/175/101
f 5/176/101 100/177/71 7/178/102
f 7/178/102 101/179/68 9/180/103
f 9/181/103 102/182/65 11/183/104
f 11/183/104 103/184/62 13/185/105
f 13/186/105 104/187/59 15/188/106
f 15/188/106 105/189/56 17/190/107
f 17/191/107 106/192/53 19/193/108
f 21/194/109 106/192/53 107/195/51
f 21/196/109 108/197/48 23/198/110
f 23/198/110 109/199/45 25/200/111
f 25/201/111 110/202/42 27/203/112
f 29/204/113 110/202/42 111/205/40
f 31/206/114 111/207/40 112/208/36
f 31/209/114 97/210/35 1/170/99
f 82/33/3 81/36/6 35/34/4
f 81/36/6 83/38/8 37/37/7
f 83/38/8 84/40/10 39/39/9
f 84/40/10 85/211/12 41/41/11
f 85/42/12 86/212/87 43/43/13
f 43/43/13 86/212/87 87/45/14
f 45/46/15 87/45/14 88/47/16
f 47/48/17 88/47/16 89/49/18
f 89/51/18 90/54/21 51/52/20
f 90/54/21 91/56/23 53/55/22
f 91/56/23 92/58/25 55/57/24
f 92/58/25 93/213/27 57/59/26
f 93/60/27 94/63/29 59/61/28
f 94/63/29 95/65/31 61/64/30
f 95/65/31 96/67/33 63/66/32
f 96/67/33 82/214/3 34/68/5
f 64/69/34 33/128/78 97/70/35
f 63/66/32 34/68/5 65/72/37
f 62/74/39 64/69/34 112/71/36
f 61/64/30 63/66/32 80/73/38
f 110/77/42 60/127/81 62/74/39
f 59/61/28 61/64/30 79/76/41
f 58/79/44 60/127/81 110/77/42
f 57/62/26 59/61/28 78/78/43
f 56/82/47 58/126/44 109/83/45
f 55/57/24 57/59/26 77/85/46
f 54/87/50 56/82/47 108/84/48
f 75/89/52 53/55/22 55/57/24
f 106/90/53 52/125/80 54/87/50
f 51/52/20 53/55/22 75/89/52
f 50/92/55 52/125/80 106/90/53
f 49/53/19 51/52/20 74/91/54
f 48/95/58 50/124/55 105/96/56
f 47/48/17 49/50/19 73/98/57
f 46/100/61 48/95/58 104/97/59
f 45/46/15 47/48/17 72/99/60
f 44/103/64 46/100/61 103/101/62
f 43/43/13 45/46/15 71/102/63
f 42/106/67 44/103/64 102/104/65
f 41/44/11 43/43/13 70/105/66
f 40/109/70 42/123/67 101/110/68
f 39/39/9 41/41/11 69/112/69
f 99/114/73 38/122/79 40/109/70
f 37/37/7 39/39/9 68/113/72
f 36/116/75 38/122/79 99/114/73
f 35/34/4 37/37/7 67/115/74
f 33/119/78 36/116/75 98/117/76
f 34/35/5 35/34/4 66/118/77
f 33/119/78 65/121/37 66/118/77
f 36/116/75 66/118/77 67/115/74
f 67/115/74 68/113/72 40/109/70
f 68/113/72 69/112/69 42/123/67
f 69/108/69 70/105/66 44/103/64
f 44/103/64 70/105/66 71/102/63
f 46/100/61 71/102/63 72/99/60
f 48/95/58 72/99/60 73/98/57
f 73/94/57 74/91/54 52/125/80
f 74/91/54 75/89/52 54/87/50
f 75/89/52 76/86/49 56/82/47
f 56/82/47 76/86/49 77/85/46
f 58/79/44 77/81/46 78/78/43
f 78/78/43 79/76/41 62/74/39
f 62/74/39 79/76/41 80/73/38
f 64/69/34 80/73/38 65/72/37
f 4/129/82 81/215/6 82/130/3
f 4/132/82 6/136/85 83/133/8
f 8/135/84 84/216/10 83/133/8
f 10/137/86 85/141/12 84/138/10
f 10/137/86 12/217/89 86/140/87
f 14/142/88 87/146/14 86/143/87
f 16/145/90 88/218/16 87/146/14
f 18/147/91 89/151/18 88/148/16
f 20/150/92 90/219/21 89/151/18
f 22/152/93 91/156/23 90/153/21
f 22/152/93 24/220/95 92/155/25
f 26/157/94 93/161/27 92/158/25
f 26/157/94 28/221/97 94/160/29
f 30/162/96 95/166/31 94/163/29
f 32/165/98 96/222/33 95/166/31
f 2/167/83 82/223/3 96/168/33
f 1/170/99 97/210/35 98/171/76
f 3/173/100 98/224/76 99/174/73
f 5/176/101 99/225/73 100/177/71
f 7/178/102 100/177/71 101/179/68
f 9/181/103 101/226/68 102/182/65
f 11/183/104 102/182/65 103/184/62
f 13/186/105 103/227/62 104/187/59
f 15/188/106 104/187/59 105/189/56
f 17/191/107 105/228/56 106/192/53
f 21/194/109 19/193/108 106/192/53
f 21/196/109 107/229/51 108/197/48
f 23/198/110 108/197/48 109/199/45
f 25/201/111 109/230/45 110/202/42
f 29/204/113 27/203/112 110/202/42
f 31/206/114 29/231/113 111/207/40
f 31/209/114 112/232/36 97/210/35
