# Blender v2.79 (sub 0) OBJ File: 'dungeon.blend'
# www.blender.org
o Cone
v -0.000000 0.077971 0.059797
v 0.051785 0.077971 0.029898
v 0.051785 0.077971 -0.029898
v -0.000000 0.077971 -0.059797
v 0.000000 -0.048092 0.000000
v -0.051786 0.077971 -0.029898
v -0.051786 0.077971 0.029898
v -0.000000 0.048092 0.096185
v 0.083298 0.048092 0.048092
v 0.083298 0.048092 -0.048092
v -0.000000 0.048092 -0.096185
v -0.083298 0.048092 -0.048092
v -0.083298 0.048092 0.048092
vt 0.710938 0.828125
vt 0.796875 0.992188
vt 0.875000 0.828125
vt 0.710938 0.828125
vt 0.875000 0.828125
vt 0.710938 0.828125
vt 0.875000 0.828125
vt 0.710938 0.828125
vt 0.875000 0.828125
vt 0.710938 0.828125
vt 0.875000 0.828125
vt 0.710938 0.828125
vt 0.875000 0.828125
vt 0.992188 0.906250
vt 0.992188 0.968750
vt 0.890625 0.968750
vt 0.742188 0.992188
vt 0.882812 0.906250
vt 0.851562 0.992188
vt 0.742188 0.992188
vt 0.882812 0.906250
vt 0.851562 0.992188
vt 0.742188 0.992188
vt 0.882812 0.906250
vt 0.851562 0.992188
vt 0.851562 0.992188
vt 0.710938 0.906250
vt 0.882812 0.906250
vt 0.742188 0.992188
vt 0.882812 0.906250
vt 0.851562 0.992188
vt 0.742188 0.992188
vt 0.882812 0.906250
vt 0.851562 0.992188
vt 0.937500 0.984375
vt 0.890625 0.906250
vt 0.937500 0.875000
vt 0.710938 0.906250
vt 0.710938 0.906250
vt 0.710938 0.906250
vt 0.742188 0.992188
vt 0.710938 0.906250
vt 0.710938 0.906250
vn 0.3780 -0.6547 0.6547
vn 0.7559 -0.6547 -0.0000
vn 0.3780 -0.6547 -0.6547
vn -0.3780 -0.6547 -0.6547
vn -0.7559 -0.6547 0.0000
vn -0.3780 -0.6547 0.6547
vn -0.0000 1.0000 0.0000
vn 0.3440 0.7257 0.5959
vn 0.6880 0.7257 -0.0000
vn 0.3440 0.7257 -0.5959
vn -0.3440 0.7257 -0.5959
vn -0.6880 0.7257 0.0000
vn -0.3440 0.7257 0.5959
s off
f 8/1/1 5/2/1 9/3/1
f 9/4/2 5/2/2 10/5/2
f 10/6/3 5/2/3 11/7/3
f 11/8/4 5/2/4 12/9/4
f 12/10/5 5/2/5 13/11/5
f 13/12/6 5/2/6 8/13/6
f 6/14/7 7/15/7 2/16/7
f 1/17/8 9/18/8 2/19/8
f 2/20/9 10/21/9 3/22/9
f 3/23/10 11/24/10 4/25/10
f 6/26/11 11/27/11 12/28/11
f 6/29/12 13/30/12 7/31/12
f 7/32/13 8/33/13 1/34/13
f 7/15/7 1/35/7 2/16/7
f 2/16/7 3/36/7 4/37/7
f 4/37/7 6/14/7 2/16/7
f 1/17/8 8/38/8 9/18/8
f 2/20/9 9/39/9 10/21/9
f 3/23/10 10/40/10 11/24/10
f 6/26/11 4/41/11 11/27/11
f 6/29/12 12/42/12 13/30/12
f 7/32/13 13/43/13 8/33/13
