# Blender v2.79 (sub 0) OBJ File: 'dungeon.blend'
# www.blender.org
o Cube
v -0.500000 -0.100000 0.500000
v -0.500000 -0.100000 -0.500000
v 0.500000 -0.100000 -0.500000
v 0.500000 -0.100000 0.500000
v -0.500000 0.000000 0.499999
v -0.499999 0.000000 -0.500000
v 0.500000 0.000000 -0.500000
v 0.500000 0.000000 0.500000
vt -0.000000 0.687500
vt 0.312500 0.375000
vt 0.312500 0.687500
vt 0.304688 0.414062
vt 0.007812 0.382812
vt 0.304688 0.382812
vt 0.304688 0.414062
vt 0.007812 0.382812
vt 0.304688 0.382812
vt 0.304688 0.414062
vt 0.304688 0.382812
vt 0.007812 0.414062
vt -0.000000 0.375000
vt 0.007812 0.414062
vt 0.007812 0.414062
vt 0.007812 0.382812
vn 0.0000 1.0000 0.0000
vn -1.0000 -0.0000 0.0000
vn 0.0000 -0.0000 -1.0000
vn 1.0000 -0.0000 0.0000
vn -0.0000 0.0000 1.0000
s off
f 8/1/1 6/2/1 5/3/1
f 5/4/2 2/5/2 1/6/2
f 6/7/3 3/8/3 2/9/3
f 3/8/4 8/10/4 4/11/4
f 1/6/5 8/12/5 5/4/5
f 8/1/1 7/13/1 6/2/1
f 5/4/2 6/14/2 2/5/2
f 6/7/3 7/15/3 3/8/3
f 3/8/4 7/15/4 8/10/4
f 1/6/5 4/16/5 8/12/5
