# Blender v2.79 (sub 0) OBJ File: 'dungeon.blend'
# www.blender.org
o Cube.002
v 0.050000 0.000000 0.500000
v 0.050000 0.000000 -0.500000
v 0.050000 1.000000 -0.500000
v 0.050000 1.000000 0.500000
v -0.050000 0.000000 0.499999
v -0.050000 0.000001 -0.500000
v -0.050000 1.000000 -0.500000
v -0.050000 1.000000 0.500000
vt 0.000000 0.687500
vt 0.312500 1.000000
vt 0.312500 0.687500
vt 0.312500 1.000000
vt 0.000000 0.687500
vt 0.312500 0.687500
vt 0.312500 0.687500
vt 0.281250 1.000000
vt 0.281250 0.687500
vt 0.007812 0.335938
vt 0.304688 0.367188
vt 0.007812 0.367188
vt 0.281250 0.687500
vt 0.000000 1.000000
vt 0.000000 1.000000
vt 0.312500 1.000000
vt 0.304688 0.335938
vt 0.281250 1.000000
vn 1.0000 -0.0000 0.0000
vn -1.0000 0.0000 0.0000
vn 0.0000 0.0000 -1.0000
vn 0.0000 1.0000 0.0000
vn -0.0000 -0.0000 1.0000
s off
f 2/1/1 4/2/1 1/3/1
f 8/4/2 6/5/2 5/6/2
f 6/7/3 3/8/3 2/9/3
f 7/10/4 4/11/4 3/12/4
f 1/13/5 8/4/5 5/6/5
f 2/1/1 3/14/1 4/2/1
f 8/4/2 7/15/2 6/5/2
f 6/7/3 7/16/3 3/8/3
f 7/10/4 8/17/4 4/11/4
f 1/13/5 4/18/5 8/4/5
